<?xml version="1.0" standalone="no"?><!DOCTYPE svg PUBLIC "-//W3C//DTD SVG 1.1//EN" "http://www.w3.org/Graphics/SVG/1.1/DTD/svg11.dtd"><svg t="1740122303498" class="icon" viewBox="0 0 1024 1024" version="1.1" xmlns="http://www.w3.org/2000/svg" p-id="1685" xmlns:xlink="http://www.w3.org/1999/xlink" width="200" height="200"><path d="M854.48 237.49c6.19-3.74 1.46-0.91 1.46-0.91 13.18-0.13 25.16-1.26 29 16.12 10.34 47.41 32.53 74.75 67.6 107.12 12.86 11.87 6.06 22.31 0.06 33.11-0.15-0.1 0 0.13 0 0.13-13.07 6-18.84 11.45-33.35-2-39.57-36.66-64.62-72.32-78.1-124.95-4.96-19.29 6.23-24.11 13.33-28.62z" fill="#66AD45" p-id="1686"></path><path d="M749.71 408c-3.74-6.2-0.91-1.47-0.91-1.47-0.13-13.18-1.26-25.16 16.12-28.95C812.33 367.22 839.67 345 872 310c11.87-12.86 22.31-6.06 33.12-0.06-0.1 0.15 0.12 0 0.12 0 6 13.07 11.46 18.85-2 33.36-36.66 39.57-72.32 64.62-124.95 78.1-19.29 4.87-24.12-6.33-28.58-13.4z" fill="#66AD45" p-id="1687"></path><path d="M488.92 152.76c-209.18 0-378.75 131.3-378.75 377.44s169.57 381.51 378.75 381.51S867.68 776.33 867.68 530.2 698.11 152.76 488.92 152.76z" fill="#8FC31F" p-id="1688"></path><path d="M866.92 502q-1.12-20.66-3.9-40.13l-17.51 13.28-59.3-118.32 18.06-52.39a323.49 323.49 0 0 0-53.43-60.64L731 246.77l-14.87-29.69a353.11 353.11 0 0 0-53.07-29.26l32.19 64.23-98.75 14.6 57-82.92q-16.29-6.71-33.42-12l-70 101.75-83.71 12.37-74.58-123q-17.69 3.81-34.65 9.06l72.46 119.41-138.87 20.52-29.73-94.3a329.39 329.39 0 0 0-46.73 38.15l4.16 66.83L157 331.6a347.64 347.64 0 0 0-17.65 37.32l81.27-12 5.12 82.29-97.55-38.45q-4.89 16.26-8.51 33.54L228.07 477l6.44 103.37-122.9-11.57a455.33 455.33 0 0 0 6.64 50.47l121.81 50.27 3.13 50.22-46.6 67.75a328.66 328.66 0 0 0 24.18 25.42l25.88-37.62 3.9 62.64a344.4 344.4 0 0 0 35.85 23.37l-8.21-131.86 23.67-34.41L386.5 730l23.74 75.36-93.84 71.15a378.7 378.7 0 0 0 37.65 14.54l67.15-50.94 21.86 69.36q18.09 1.78 36.67 2.15l-29.48-93.54 52.76-40 89 36.75-31.49 91.37q19.94-3.15 39.1-8.1l24.18-70.15 73.2 30.17a339.84 339.84 0 0 0 34.12-23L635 795.42l47.68-138.31 3 0.28L829 713.86q7.31-15.27 13.33-31.65L702.19 627l131.15-99.47 30.9 61.67a494.29 494.29 0 0 0 3.44-59q0-5.55-0.11-11l-6.41-12.77zM186.63 610.35l50 4.72 1 16.35zM778.3 274.49l-13.6 39.45-17.47-34.86z m-254.72 37.64L501.67 344l-15.92-26.26zM611.4 591.2l-187.33-73.83 75.78-110.17z m-162.49-268l31.42 51.8-89 129.45-45.52-17.94L301.18 345z m-77.58 210.28L364 544.2l-4.9-15.56zM251.55 301.71l4.79 15.21-3.81 0.56z m3.12 50.16l12.12-1.79 37.88 120.23L261 453.08z m8.66 139L318 512.44l21.32 67.65-6.57 9.55-63.59-6z m26 161.82L273 646l-1.72-27.66 39.14 3.66z m32.45 13.39l27.8-40.41 4.22 0.39 19.28 61.19z m57.91-72.06l-2.69-8.28 27.07-39.34 166.63 65.67z m59.6 189.28l-11.42-36.25 38.35 15.83z m58.64-44.47l-83.51-34.46-23.56-74.77 223.32 21z m105.32 43.47L534.71 754l106-80.4z m59.5-172.61L521.19 376.18 570 305.27l141.52-20.91 37.57 75zM710 578l60.58-175.72 47.12 94z" fill="#ABD31A" p-id="1689"></path></svg>