<?xml version="1.0" standalone="no"?><!DOCTYPE svg PUBLIC "-//W3C//DTD SVG 1.1//EN" "http://www.w3.org/Graphics/SVG/1.1/DTD/svg11.dtd"><svg t="1740323602090" class="icon" viewBox="0 0 1024 1024" version="1.1" xmlns="http://www.w3.org/2000/svg" p-id="2344" xmlns:xlink="http://www.w3.org/1999/xlink" width="200" height="200"><path d="M0 0h1024v1024H0z" fill="#FF9641" p-id="2345"></path><path d="M890 795.5c13.3 5.9 20.6 19.8 19.1 33.9 12.6 5.6 20.7 19.1 19 33.9-1.7 14.8-12.6 26.4-26.2 29.5-1.6 14-11.8 26.2-26.2 29.5-14.3 3.2-28.4-3.5-35.2-15.7-13.6 3.1-28-2.9-35.2-15.7-7.2-12.8-5-28.6 4.4-39.2-6.8-12.2-5.5-28 4.4-39.2 9.9-11.1 25.3-14.2 37.9-8.5 9.5-10.5 24.7-14.4 38-8.5z" fill="#6BE166" p-id="2346"></path><path d="M868.6 933.1c-12.7 0-24.7-5.7-32.8-15.7-15.9 0.9-31.1-7.2-39.2-21.5-8-14.3-7.3-31.7 1.5-45.3-5.6-15-2.5-32.2 8.5-44.5 11-12.4 27.6-17.3 42.9-13.3 12.5-10.3 29.6-12.9 44.5-6.2 14.9 6.6 24.5 21.1 25.2 37.2 13.2 8.7 20.7 24.4 18.8 40.8-1.8 16.4-12.5 30.2-27.4 36.1-4.2 15.6-16.7 27.9-32.7 31.5-3.1 0.6-6.2 0.9-9.3 0.9z m-23-37.9l3.6 6.5c4.9 8.6 14.6 13 24.3 10.8 9.9-2.2 17.3-10.6 18.4-20.8l0.8-7.1 7-1.6c9.9-2.2 17.3-10.6 18.4-20.8 1.1-10.1-4.2-19.6-13.2-23.7l-6.7-3 0.8-7.3c1.1-10.1-4.2-19.6-13.2-23.6s-19.6-1.6-26.4 6l-4.9 5.5-6.7-3c-9-4-19.6-1.6-26.4 6-6.8 7.7-8.1 18.8-3.2 27.6l3.5 6.2-4.7 5.3c-6.8 7.7-8.1 18.8-3.1 27.6 4.9 8.7 14.6 13 24.3 10.8l7.4-1.4z" fill="#333333" p-id="2347"></path><path d="M194.7 153.5l-26.6 14.6-14.6 26.6-14.6-26.6-26.6-14.6 26.6-14.6 14.6-26.6 14.6 26.6 26.6 14.6z" fill="#FFFE07" fill-opacity=".734" p-id="2348"></path><path d="M153.5 211.3L133 174l-37.4-20.5L133 133l20.5-37.4L174 133l37.4 20.5L174 174l-20.5 37.3zM129 153.5l15.8 8.7 8.7 15.8 8.7-15.8 15.8-8.7-15.8-8.7-8.7-15.8-8.7 15.8-15.8 8.7z" fill="#333333" p-id="2349"></path><path d="M752.9 148.7l-24.9-0.6-21.3 13 0.6-24.9-13-21.3 24.9 0.6 21.3-13-0.6 24.9 13 21.3z" fill="#FF7500" fill-opacity=".734" p-id="2350"></path><path d="M700.5 171.9l0.8-34.1-17.8-29.2 34.1 0.8 29.2-17.8-0.8 34.1 17.8 29.2-34.1-0.8-29.2 17.8z m4.7-50.8l8.2 13.4-0.4 15.7 13.4-8.2 15.7 0.4-8.2-13.4 0.4-15.7-13.4 8.2-15.7-0.4z" fill="#333333" p-id="2351"></path><path d="M166.939 879.81c0.974-6.014 6.362-12.51 9.953-14.643 5.483-3.222 12.396-3.606 17.802-0.522 4.922 2.792 8.363 7.5 9.5 12.885 2.055 9.072 0.594 18.506-4.069 28.325-4.128 8.656-9.395 15.226-15.656 19.878-5.484 4.047-12.857 4.649-18.918 1.42" fill="#FF0000" p-id="2352"></path><path d="M173.863 937.756c-4.22 0.022-8.488-0.975-12.295-3.015-4.17-2.258-5.768-7.425-3.51-11.595 2.259-4.17 7.426-5.768 11.596-3.51 3.104 1.7 6.936 1.363 9.8-0.794 5.143-3.756 9.512-9.38 13.034-16.75 3.958-8.099 5.079-15.593 3.507-22.724-0.653-3.032-2.665-5.726-5.428-7.304-2.74-1.481-6.306-1.314-9.266 0.455-1.698 1.042-5.412 5.575-5.971 8.703-0.804 4.632-5.171 7.782-9.803 6.98-4.632-0.804-7.782-5.172-6.98-9.804 1.389-8.488 8.21-17.093 13.935-20.582 8.25-4.943 18.388-5.203 26.437-0.614 6.958 3.933 11.95 10.728 13.668 18.441 2.418 10.94 0.834 22.363-4.751 33.855-4.76 9.844-10.877 17.553-18.278 23.005-4.586 3.514-10.141 5.208-15.695 5.253z" fill="#333333" p-id="2353"></path><path d="M166.939 879.81c-3.708-4.95-12.17-7.89-16.44-8.062-6.256-0.295-12.54 2.611-15.866 7.872-3.035 4.776-3.887 10.45-2.435 15.86 2.444 8.976 8.163 16.62 16.89 23.1 7.709 5.705 15.444 9.033 23.155 10.202 6.742 0.998 13.535-1.932 17.37-7.63" fill="#FF0000" p-id="2354"></path><path d="M174.833 937.514c-1.237 0-2.595-0.074-3.88-0.269-8.998-1.364-18.114-5.274-26.939-11.731C133.76 917.867 127 908.525 124 897.73c-2.106-7.617-0.864-15.863 3.312-22.675 4.977-7.734 14.027-12.36 23.63-11.87 6.161 0.32 17.412 4.11 22.889 11.608 2.81 3.834 1.959 9.096-1.875 11.907s-9.097 1.96-11.908-1.875c-1.696-2.256-7.297-4.467-9.892-4.541-3.444-0.172-6.768 1.378-8.297 3.924-1.797 2.715-2.235 5.916-1.461 9.02 1.984 7.133 6.467 13.126 13.764 18.418 6.57 4.855 13.068 7.77 19.373 8.67 3.54 0.561 7.059-1.038 9.025-3.898 2.622-3.952 7.934-4.967 11.886-2.345 3.951 2.622 4.967 7.934 2.345 11.885-5 7.225-13.298 11.561-21.957 11.555z" fill="#333333" p-id="2355"></path><path d="M704 917.3m-21.3 0a21.3 21.3 0 1 0 42.6 0 21.3 21.3 0 1 0-42.6 0Z" fill="#00FFD7" p-id="2356"></path><path d="M704 946.7c-16.2 0-29.3-13.2-29.3-29.3 0-16.2 13.2-29.3 29.3-29.3s29.3 13.2 29.3 29.3-13.1 29.3-29.3 29.3z m0-42.7c-7.4 0-13.3 6-13.3 13.3 0 7.4 6 13.3 13.3 13.3s13.3-6 13.3-13.3c0-7.3-5.9-13.3-13.3-13.3z" fill="#333333" p-id="2357"></path><path d="M765.6 741.5c-95.4 105.7-214.3 43.1-238.3-10.7s43.9-136.3 151.5-184.2c54.2-24.1 123.1-18.7 206.8 16.4 21.7 9.1 32 34.1 22.9 55.8-3.7 8.8-10.2 16.1-18.6 20.8-43.3 24.1-84.8 58.1-124.3 101.9z" fill="#6BE166" p-id="2358"></path><path d="M648.4 820.2c-8.5 0-17.1-0.7-25.7-2.1-59-9.4-100.9-47.4-114.9-78.7-15-33.8-4.6-75.2 29.4-116.5 30.7-37.3 77.9-71.3 132.9-95.8 30.3-13.5 64.8-18.8 102.7-15.8 36.6 2.9 77.3 13.7 121 32 32.5 13.6 47.9 51.2 34.3 83.8-5.5 13.2-15.4 24.2-27.9 31.2-41.1 22.9-81.1 55.7-118.8 97.5-23.7 26.3-50.4 44.8-79.2 55.1-17.5 6.2-35.5 9.3-53.8 9.3z m104.1-267c-24 0-45.7 4.3-64.9 12.8-103.4 46-157.1 119.2-140.7 156 9.5 21.3 41.6 47.4 82.6 53.9 30.4 4.8 76 0.3 120.4-48.9 40.9-45.3 84.5-81 129.8-106.2 4.2-2.3 7.5-6 9.3-10.4 4.5-10.8-0.6-23.4-11.4-27.9-46.9-19.5-88.7-29.3-125.1-29.3z" fill="#333333" p-id="2359"></path><path d="M233.1 744.3c13.3 8.4 26.5 17.6 39.8 27.6 113.8 85.6 218.6 1.5 231.9-55.9 13.3-57.4-69.1-125.4-183.9-151.9-58.6-13.5-126.1 5.6-202.8 57.5-19.5 13.2-24.6 39.7-11.4 59.2 6 8.8 15 15.1 25.4 17.6" fill="#6BE166" p-id="2360"></path><path d="M372.7 829.7c-8.1 0-16.2-0.6-24.4-1.9-30.3-4.6-60-17.7-88.3-39-12.7-9.6-25.7-18.5-38.4-26.6-10-6.3-12.9-19.5-6.6-29.4 6.3-10 19.5-12.9 29.4-6.6 13.7 8.7 27.6 18.3 41.2 28.5 52.9 39.8 98.5 35.6 127.5 25 39-14.2 65.5-46 70.8-68.7 9.1-39.3-57.6-100.9-167.9-126.3-52.3-12.1-114.9 6.2-186 54.4-4.7 3.2-7.9 8-9 13.6-1.1 5.6 0.1 11.3 3.3 16 3 4.4 7.5 7.5 12.7 8.8 11.5 2.7 18.5 14.3 15.8 25.7-2.7 11.5-14.3 18.5-25.7 15.8-15.6-3.7-29.1-13.1-38.1-26.4-9.6-14.2-13.1-31.2-9.8-48s12.8-31.3 27-40.9c40-27.1 78.5-46 114.3-56.1 37.1-10.5 72.5-12 105.2-4.5 58.7 13.5 111.5 38 148.7 68.7 41.3 34.1 59.4 72.7 51.1 108.8-7.7 33.4-41.6 78.7-97.7 99.2-18 6.6-36.4 9.9-55.1 9.9z" fill="#333333" p-id="2361"></path><path d="M533.7 811.7c80-20 124.1-119.5 98.4-222.4-17.1-68.6-80.9-118.6-191.3-150.2-82.7 79.7-115.6 153.8-98.4 222.4C368 764.4 453.7 831.7 533.7 811.7z" fill="#6BE166" p-id="2362"></path><path d="M504.9 836.6c-34.5 0-69.2-12.7-100.4-37.1-39.9-31.3-69.3-78.4-82.8-132.8-9.7-38.8-5.3-79.5 13-120.8 17.5-39.4 48.2-80.5 91.4-122.1l8.8-8.5 11.8 3.4c57.6 16.4 104.1 38.3 138 64.9 35.6 27.9 58.5 61.8 68.2 100.6 13.5 54.3 9.7 109.8-10.8 156.1-21.3 48.2-58 80.9-103.2 92.2-11.2 2.7-22.6 4.1-34 4.1z m-58.1-373.5c-34.5 34.7-59.1 68.3-73.1 100-14.6 32.9-18 63.4-10.6 93.3 11.3 45.2 35.3 84.1 67.8 109.5 30.8 24.2 65.6 33.1 97.7 25.1 32.2-8 58.6-32.2 74.5-68 16.7-37.7 19.7-83.3 8.4-128.5-7.4-29.8-24.8-55.1-53.1-77.4-27.3-21.4-64.8-39.6-111.6-54z" fill="#333333" p-id="2363"></path><path d="M465.7 170.8c86.6-13.7 166.9 29.7 190.3 99.2 10-2.5 20.6-3.9 31.4-3.9 70.7 0 128 57.3 128 128 0 23.1-6.1 44.8-16.8 63.5 26.9 19.4 44.4 50.9 44.4 86.6 0 58.9-47.8 106.7-106.7 106.7-23.2 0-44.8-7.4-62.3-20.1-15 24.6-42 41.1-73 41.1-12.6 0-24.5-2.7-35.3-7.6-25.1 9.3-52.9 15.1-82.4 16.7-7.1 0.4-14.1 0.5-21 0.4C447 704.1 421 719 391.6 719c-33.3 0-62.1-19-76.2-46.8-11.4 4.2-23.7 6.4-36.5 6.4-58.9 0-106.7-47.8-106.7-106.7 0-17 4-33.1 11-47.3-21-22.8-33.8-53.2-33.8-86.6 0-18.2 3.8-35.6 10.7-51.2 9.2-21.1 24-39.2 42.4-52.5 21.1-15.2 46.9-24.2 74.9-24.2 13.3 0 26.2 2 38.3 5.8 5.3-70.2 66.7-131.9 150-145.1z" fill="#FFCC99" p-id="2364"></path><path d="M391.6 740.2c-34.4 0-65.9-16.2-85.8-43.2-8.8 1.9-17.8 2.8-26.9 2.8-70.6 0-128-57.4-128-128 0-15.1 2.6-29.7 7.6-43.7-19.7-25.9-30.4-57.4-30.4-90.3 0-20.8 4.2-40.9 12.5-59.8 10.7-24.4 27.8-45.6 49.5-61.3 25.6-18.5 55.8-28.3 87.4-28.3 7 0 13.9 0.5 20.8 1.4 7.3-30.6 24-59.5 48.3-83.2 30.4-29.7 71.6-50 115.8-57 46.1-7.3 93.1 0 132.1 20.6 33.6 17.7 59.5 44.1 74.7 75.5 6-0.7 12.1-1.1 18.2-1.1 82.3 0 149.3 67 149.3 149.3 0 19.9-4 39.7-11.7 57.9 24.8 24 39.2 57.3 39.2 92.2 0 70.6-57.4 128-128 128-20 0-39.3-4.5-56.8-13.3-20 21.8-48.1 34.3-78.4 34.3-12.4 0-24.4-2.1-35.8-6.2-25.6 8.6-52.7 13.7-80.8 15.2-3.9 0.2-7.8 0.3-11.6 0.4-20.2 23.9-49.8 37.8-81.2 37.8z m-65.7-94.7l8.6 16.9c11 21.7 32.9 35.1 57.1 35.1 21.3 0 41.1-10.5 53-28.2l6.5-9.6 11.6 0.2c6.5 0.1 13 0 19.5-0.3 26.7-1.4 52.3-6.6 76.1-15.4l8.2-3 8 3.6c8.3 3.8 17.2 5.7 26.5 5.7 22.5 0 43-11.5 54.7-30.8l12-19.7 18.7 13.5c14.6 10.5 31.8 16 49.8 16 47.1 0 85.3-38.3 85.3-85.3 0-27.4-13.3-53.3-35.5-69.3l-15.6-11.2L780 447c9.2-16 14-34.3 14-52.9 0-58.8-47.9-106.7-106.7-106.7-8.9 0-17.7 1.1-26.2 3.2l-19.1 4.8-6.3-18.7c-9.6-28.6-31.3-53-61.2-68.7-31-16.3-68.5-22.1-105.6-16.2l-3.3-21.1 3.3 21.1c-71.9 11.4-127.5 64.1-132 125.4l-2 26.8-25.7-8c-10.3-3.2-21-4.9-31.9-4.9-22.6 0-44.2 7-62.4 20.2-15.5 11.2-27.7 26.4-35.4 43.8-5.9 13.5-8.9 27.8-8.9 42.7 0 26.8 10 52.5 28.1 72.2l9.9 10.8-6.5 13.1c-5.9 11.8-8.8 24.5-8.8 37.8 0 47.1 38.3 85.3 85.3 85.3 10.1 0 19.9-1.7 29.2-5.1l18.1-6.4z" fill="#333333" p-id="2365"></path><path d="M892.9 384.3c-11 0-20.3-8.4-21.2-19.5-2.9-34.1-21.1-68.7-51.1-97.3-8.5-8.1-8.9-21.6-0.7-30.2 8.1-8.5 21.6-8.9 30.2-0.7 37.5 35.8 60.3 80 64.2 124.5 1 11.7-7.7 22.1-19.4 23.1-0.8 0.1-1.4 0.1-2 0.1z" fill="#333333" p-id="2366"></path><path d="M643.712 454.12m-64 0a64 64 0 1 0 128 0 64 64 0 1 0-128 0Z" fill="#FFAFA3" opacity=".694" p-id="2367"></path><path d="M387.712 454.12m-64 0a64 64 0 1 0 128 0 64 64 0 1 0-128 0Z" fill="#FFAFA3" opacity=".694" p-id="2368"></path><path d="M430.112 388.92m-27.7 0a27.7 27.7 0 1 0 55.4 0 27.7 27.7 0 1 0-55.4 0Z" fill="#333333" p-id="2369"></path><path d="M513.312 477.62c-16 0-31-6.2-42.2-17.5-6.7-6.7-6.7-17.5 0-24.1s17.5-6.7 24.1 0c10 10 26.2 10 36.2 0 6.7-6.7 17.5-6.7 24.1 0 6.7 6.7 6.7 17.5 0 24.1-11.2 11.3-26.2 17.5-42.2 17.5z" fill="#333333" p-id="2370"></path><path d="M600.812 388.92m-27.7 0a27.7 27.7 0 1 0 55.4 0 27.7 27.7 0 1 0-55.4 0Z" fill="#333333" p-id="2371"></path><path d="M886.350718 439.942622a21.3 21.3 0 1 0 25.040254-34.463687 21.3 21.3 0 1 0-25.040254 34.463687Z" fill="#333333" p-id="2372"></path><path d="M171.656717 739.130395a21.3 21.3 0 1 0 25.040253-34.463687 21.3 21.3 0 1 0-25.040253 34.463687Z" fill="#333333" p-id="2373"></path></svg>