<?xml version="1.0" standalone="no"?><!DOCTYPE svg PUBLIC "-//W3C//DTD SVG 1.1//EN" "http://www.w3.org/Graphics/SVG/1.1/DTD/svg11.dtd"><svg t="1740323575351" class="icon" viewBox="0 0 1024 1024" version="1.1" xmlns="http://www.w3.org/2000/svg" p-id="2145" xmlns:xlink="http://www.w3.org/1999/xlink" width="200" height="200"><path d="M0 0h1024v1024H0z" fill="#D3E646" p-id="2146"></path><path d="M778.4 794.2m-21.3 0a21.3 21.3 0 1 0 42.6 0 21.3 21.3 0 1 0-42.6 0Z" fill="#333333" p-id="2147"></path><path d="M273.2 921.5c-3.1 0-6.3-0.7-9.3-2.2-53.1-25.9-88.2-79-96.4-145.7-1.4-11.7 6.9-22.3 18.6-23.8 11.7-1.4 22.3 6.9 23.8 18.6 6.4 52.1 32.9 93.1 72.7 112.6 10.6 5.2 15 17.9 9.8 28.5-3.7 7.6-11.3 12-19.2 12z" fill="#333333" p-id="2148"></path><path d="M943.4 858.9c13.3 5.9 20.6 19.8 19.1 33.9 12.6 5.6 20.7 19.1 19 33.9-1.7 14.8-12.6 26.4-26.2 29.5-1.6 14-11.8 26.2-26.2 29.5-14.3 3.2-28.4-3.5-35.2-15.7-13.6 3.1-28-2.9-35.2-15.7-7.2-12.8-5-28.6 4.4-39.2-6.8-12.2-5.5-28 4.4-39.2 9.9-11.1 25.3-14.2 37.9-8.5 9.4-10.6 24.7-14.5 38-8.5z" fill="#FAE44B" p-id="2149"></path><path d="M921.9 996.4c-12.7 0-24.7-5.7-32.8-15.7-15.9 0.9-31.1-7.2-39.2-21.5-8-14.3-7.3-31.8 1.5-45.3-5.6-15-2.5-32.2 8.5-44.5 11-12.4 27.6-17.3 42.9-13.3 12.5-10.3 29.6-12.9 44.5-6.2 14.9 6.6 24.5 21.1 25.2 37.2 13.2 8.7 20.7 24.4 18.8 40.8-1.8 16.4-12.5 30.2-27.4 36.1-4.2 15.6-16.7 27.9-32.7 31.5-3 0.6-6.2 0.9-9.3 0.9zM899 958.6l3.6 6.5c4.9 8.6 14.6 13 24.3 10.8 9.9-2.2 17.3-10.6 18.4-20.8l0.8-7.1 7-1.6c9.9-2.2 17.3-10.6 18.4-20.8 1.1-10.1-4.2-19.6-13.2-23.7l-6.7-3 0.8-7.3c1.1-10.1-4.2-19.6-13.2-23.6s-19.6-1.6-26.4 6l-4.9 5.5-6.7-3c-9-4-19.6-1.6-26.4 6-6.8 7.7-8.1 18.8-3.2 27.6l3.5 6.2-4.7 5.3c-6.8 7.7-8.1 18.8-3.1 27.6 4.9 8.7 14.6 13 24.3 10.8l7.4-1.4z" fill="#333333" p-id="2150"></path><path d="M166.7 149.5l-26.6 14.6-14.6 26.6-14.6-26.6-26.6-14.6 26.6-14.6 14.6-26.6 14.6 26.6 26.6 14.6z" fill="#FF2A07" fill-opacity=".734" p-id="2151"></path><path d="M125.5 207.3L105 170l-37.4-20.5L105 129l20.5-37.4L146 129l37.4 20.5L146 170l-20.5 37.3zM101 149.5l15.8 8.7 8.7 15.8 8.7-15.8 15.8-8.7-15.8-8.7-8.7-15.8-8.7 15.8-15.8 8.7z" fill="#333333" p-id="2152"></path><path d="M136.7 892l-25.5-0.6-21.8 13.3 0.6-25.5-13.3-21.8 25.5 0.6 21.8-13.3-0.6 25.5 13.3 21.8z" fill="#FF7500" fill-opacity=".734" p-id="2153"></path><path d="M82.7 916.2l0.8-35.4-18.4-30.2 35.4 0.8 30.2-18.4-0.8 35.4 18.4 30.2-35.4-0.8-30.2 18.4z m5.5-52.2l8.2 13.4-0.4 15.7 13.4-8.2 15.7 0.4-8.2-13.4 0.4-15.7-13.4 8.2-15.7-0.4z" fill="#333333" p-id="2154"></path><path d="M922.939 220.477c0.974-6.014 6.362-12.51 9.953-14.643 5.483-3.222 12.396-3.606 17.802-0.522 4.922 2.792 8.363 7.5 9.5 12.884 2.055 9.073 0.594 18.506-4.069 28.326-4.128 8.656-9.395 15.225-15.656 19.878-5.484 4.047-12.857 4.649-18.918 1.419" fill="#FF0000" p-id="2155"></path><path d="M929.863 278.423c-4.22 0.022-8.488-0.975-12.295-3.015-4.17-2.258-5.768-7.425-3.51-11.596 2.259-4.17 7.426-5.767 11.596-3.509 3.104 1.7 6.936 1.363 9.8-0.794 5.143-3.756 9.512-9.38 13.034-16.751 3.958-8.098 5.079-15.592 3.507-22.724-0.653-3.032-2.665-5.725-5.428-7.303-2.74-1.481-6.306-1.314-9.266 0.455-1.698 1.042-5.412 5.575-5.971 8.703-0.804 4.632-5.171 7.782-9.803 6.979-4.632-0.804-7.782-5.171-6.98-9.803 1.389-8.488 8.21-17.094 13.935-20.583 8.25-4.942 18.388-5.202 26.437-0.613 6.958 3.933 11.95 10.727 13.668 18.44 2.418 10.94 0.834 22.363-4.751 33.856-4.76 9.844-10.877 17.553-18.278 23.005-4.586 3.514-10.141 5.208-15.695 5.253z" fill="#333333" p-id="2156"></path><path d="M922.939 220.477c-3.708-4.95-12.17-7.89-16.44-8.063-6.256-0.295-12.54 2.612-15.866 7.873-3.035 4.776-3.887 10.45-2.435 15.86 2.444 8.975 8.163 16.619 16.89 23.1 7.709 5.705 15.444 9.032 23.155 10.201 6.742 0.999 13.535-1.931 17.37-7.629" fill="#FF0000" p-id="2157"></path><path d="M930.833 278.181c-1.237 0-2.595-0.074-3.88-0.27-8.998-1.363-18.114-5.274-26.939-11.73C889.76 258.533 883 249.191 880 238.396c-2.106-7.617-0.864-15.862 3.312-22.675 4.977-7.733 14.05-12.263 23.63-11.869 6.161 0.32 17.412 4.11 22.889 11.608 2.81 3.834 1.959 9.096-1.875 11.907s-9.097 1.959-11.908-1.875c-1.696-2.257-7.297-4.467-9.892-4.542-3.444-0.172-6.768 1.379-8.297 3.924-1.797 2.715-2.235 5.917-1.461 9.022 1.984 7.131 6.467 13.125 13.764 18.417 6.57 4.855 13.068 7.77 19.373 8.67 3.54 0.56 7.059-1.038 9.025-3.899 2.622-3.951 7.934-4.967 11.886-2.345 3.951 2.622 4.967 7.934 2.345 11.886-5 7.224-13.298 11.56-21.957 11.555z" fill="#333333" p-id="2158"></path><path d="M897 590.8c-18.4-119.8-170.7-189.1-170.7-256 0-129.6-90.8-90.8-243.9-90.8s-268.1-17.5-268.1 112.1c0 65.3-35.5 372.9 85.3 490.7 118.9 115.9 341.3 85.3 469.3 0 81.1-54 117.7-97.3 129.3-150.3" fill="#8E36B1" p-id="2159"></path><path d="M511.4 944c-40.1 0-77.8-5.3-112.5-15.9-44.9-13.7-83.3-35.9-114.1-66-26.6-25.9-48-61.8-63.5-106.6-12.8-36.7-21.9-80.5-27.3-129.9-9.5-88.4-5.1-177.5-2.5-230.8 0.8-16.8 1.5-30.1 1.5-38.6 0-41.6 10.7-72.4 32.9-94.2 42.3-41.7 115.3-40.8 207.7-39.6 15.8 0.2 32.1 0.4 48.8 0.4 31 0 59.8-1.6 85.3-3.1 32.3-1.8 60.2-3.4 84.3-1.4 29.6 2.5 50.6 10.5 66 25 20.2 19.1 29.7 48.2 29.7 91.6 0 21.1 29 50 59.7 80.6 44.3 44.2 99.5 99.1 110.7 172.1 1.8 11.6-6.2 22.5-17.8 24.3-11.6 1.8-22.5-6.2-24.3-17.8-9.1-59.2-56.7-106.6-98.6-148.4-38.8-38.6-72.3-72-72.3-110.9 0-30.4-5.3-50.2-16.3-60.5-18.8-17.8-62.8-15.2-118.6-12.1-26 1.5-55.6 3.2-87.8 3.2-17 0-33.4-0.2-49.4-0.4-79.2-1-147.6-1.9-177.2 27.3-13.6 13.4-20.2 34.3-20.2 63.9 0 9.5-0.7 23.3-1.5 40.7-5 101.7-16.8 339.8 80.4 434.7 25.9 25.3 58.5 44.1 96.8 55.8 35.8 11 75.7 15.6 118.6 13.7 80-3.5 165-30.4 227.2-71.9 75.1-50.1 109.9-89.8 120.3-137.1 2.5-11.5 13.9-18.8 25.4-16.3 11.5 2.5 18.8 13.9 16.3 25.4-13 59.3-53 106.6-138.3 163.5-33.4 22.3-73.5 41.3-115.9 54.9-43.3 13.9-89.3 22.2-133 24.2-7 0-13.8 0.2-20.5 0.2z" fill="#333333" p-id="2160"></path><path d="M763 324.2c-76.7 40.8-169.6 15.6-278.7-75.5-6.7 127.8-26.2 187.7-68.8 185.5-28.4-1.5-54.6-45.6-78.5-132.3C217.4 409.6 159.1 435 162.1 378.2c4.5-85.2 139-206.3 266.8-199.6 145-49.4 256.4-0.9 334.1 145.6z" fill="#94D808" p-id="2161"></path><path d="M417.7 455.6c-1.1 0-2.2 0-3.3-0.1-21.7-1.1-41.3-16.1-58.2-44.6-10.6-17.9-20.5-41.2-30.1-70.9-33.7 29.2-62.3 51.2-85.1 65.6-35.4 22.3-59.4 28.3-77.8 19.5-11.1-5.3-23.9-17.9-22.3-48.1 1.3-24.4 11.3-51.6 29.1-78.7 16.6-25.2 39.4-49.9 66.1-71.2 58.5-46.8 127.5-72.2 189.9-70.2 75.8-25 144.4-24.6 203.9 1.3 60 26.1 111.2 78.6 152.2 155.8l10 18.8-18.8 10c-43.1 22.9-91.1 27.5-142.8 13.5-39.8-10.8-82.5-33-127.4-66.1-4 47.2-10.3 81.7-19.4 107-6.8 18.8-15.2 32.7-25.7 42.4-11.5 10.6-25.3 16-40.3 16z m-69.4-192.7l9.2 33.3c30.9 112 56.3 116.5 59.1 116.7 4.3 0.2 15.6 0.8 26.7-29.9 9.9-27.6 16.4-71.9 19.7-135.4l2.2-42.6 32.7 27.4c51.9 43.4 100.2 71.3 143.5 83 33.3 9 63.5 8.7 91.5-1.2-34.1-57.6-74.5-96.8-120.3-116.7-25-10.9-52.3-16.4-81.3-16.3-29.6 0.1-61.8 6-95.6 17.5l-3.9 1.3-4.1-0.2c-53.2-2.8-113.5 19.3-165.2 60.7-46.2 37-77.3 83.6-79.2 118.7-0.2 3-0.1 5.2 0.1 6.7 5-0.9 16.9-4.7 40.3-20.1 25.6-16.9 58.9-43.8 99-79.9l25.6-23z" fill="#333333" p-id="2162"></path><path d="M422 225.8c-9.2-53-20.9-94-35.2-123.2-24-49.3-140.8-94.1-76.7 37.4 25 51.3 44.5 91.3 58.6 120.1" fill="#94D808" p-id="2163"></path><path d="M368.7 281.5c-7.9 0-15.5-4.4-19.2-12L291 149.4c-13.5-27.6-20.4-49.8-21.1-67.6-1.2-28.8 14.1-40.6 23.3-45.1 9.9-4.8 31.4-10.1 64.9 8.8 21.3 12.1 39.3 29.9 48 47.7 15.2 31.3 27.4 73.4 37 128.9 2 11.6-5.8 22.7-17.4 24.7-11.6 2-22.7-5.8-24.7-17.4-8.8-50.7-20-90.3-33.3-117.5-4.7-9.7-16.4-21-29.6-28.7-12.6-7.4-21.8-8.8-25.3-8.4-1.2 4.9-0.2 21.5 16.5 55.8l58.6 120.1c5.2 10.6 0.8 23.4-9.8 28.5-3.1 1.6-6.2 2.3-9.4 2.3z" fill="#333333" p-id="2164"></path><path d="M318.727026 952.968054a21.3 21.3 0 1 0 8.128463-41.817318 21.3 21.3 0 1 0-8.128463 41.817318Z" fill="#333333" p-id="2165"></path><path d="M902.6 641.1m-21.3 0a21.3 21.3 0 1 0 42.6 0 21.3 21.3 0 1 0-42.6 0Z" fill="#333333" p-id="2166"></path><path d="M675.715404 583.815446m-63.522954 7.799638a64 64 0 1 0 127.045908-15.599276 64 64 0 1 0-127.045908 15.599276Z" fill="#FFDBD6" opacity=".516" p-id="2167"></path><path d="M421.623589 615.013998m-63.522954 7.799638a64 64 0 1 0 127.045908-15.599276 64 64 0 1 0-127.045908 15.599276Z" fill="#FFDBD6" opacity=".516" p-id="2168"></path><path d="M455.761665 545.132729m-27.493529 3.375781a27.7 27.7 0 1 0 54.987057-6.751562 27.7 27.7 0 1 0-54.987057 6.751562Z" fill="#333333" p-id="2169"></path><path d="M541.844794 623.425416c-12.899582-0.028146-25.790368-4.087412-36.71164-12.620044-7.466584-5.833535-8.782773-16.553033-2.937051-23.920362 5.833535-7.466584 16.553033-8.782773 23.920362-2.937052 5.349194 4.179249 12.129792 6.066973 18.879106 5.238261 6.749314-0.828712 12.871817-4.300737 17.051065-9.649931 5.833535-7.466584 16.553033-8.782773 23.920362-2.937051 7.466584 5.833535 8.782773 16.553033 2.937051 23.920362-11.754137 15.044609-29.322331 22.944518-47.059255 22.905817z" fill="#333333" p-id="2170"></path><path d="M625.189293 524.329632m-27.493528 3.375781a27.7 27.7 0 1 0 54.987056-6.751562 27.7 27.7 0 1 0-54.987056 6.751562Z" fill="#333333" p-id="2171"></path><path d="M832 149.3m-21.3 0a21.3 21.3 0 1 0 42.6 0 21.3 21.3 0 1 0-42.6 0Z" fill="#00FFD7" p-id="2172"></path><path d="M832 178.7c-16.2 0-29.3-13.2-29.3-29.3S815.8 120 832 120s29.3 13.2 29.3 29.3-13.1 29.4-29.3 29.4z m0-42.7c-7.4 0-13.3 6-13.3 13.3s6 13.3 13.3 13.3 13.3-6 13.3-13.3S839.4 136 832 136z" fill="#333333" p-id="2173"></path></svg>