<?xml version="1.0" standalone="no"?><!DOCTYPE svg PUBLIC "-//W3C//DTD SVG 1.1//EN" "http://www.w3.org/Graphics/SVG/1.1/DTD/svg11.dtd"><svg t="1740323561787" class="icon" viewBox="0 0 1024 1024" version="1.1" xmlns="http://www.w3.org/2000/svg" p-id="1948" xmlns:xlink="http://www.w3.org/1999/xlink" width="200" height="200"><path d="M0 0h1024v1024H0z" fill="#FFB9B6" p-id="1949"></path><path d="M187.3 149.3l-24.6 13.4-13.4 24.6-13.4-24.6-24.6-13.4 24.6-13.4 13.4-24.6 13.4 24.6 24.6 13.4z" fill="#FFFE07" fill-opacity=".734" p-id="1950"></path><path d="M149.3 204L130 168.7l-35.3-19.3L130 130l19.3-35.3 19.3 35.3 35.3 19.3-35.3 19.3-19.3 35.4zM128 149.3l13.8 7.5 7.5 13.8 7.5-13.8 13.8-7.5-13.8-7.5-7.5-13.8-7.5 13.8-13.8 7.5z" fill="#333333" p-id="1951"></path><path d="M839 149.1l-25.5-0.6-21.8 13.3 0.6-25.5-13.3-21.8 25.5 0.6 21.8-13.3-0.6 25.5 13.3 21.8z" fill="#FF7500" fill-opacity=".734" p-id="1952"></path><path d="M785 173.3l0.8-35.4-18.4-30.2 35.4 0.8L833 90.2l-0.8 35.4 18.4 30.2-35.4-0.8-30.2 18.3z m5.5-52.2l8.2 13.4-0.4 15.7 13.4-8.2 15.7 0.4-8.2-13.4 0.4-15.7-13.4 8.2-15.7-0.4z" fill="#333333" p-id="1953"></path><path d="M166.939 879.81c0.974-6.014 6.362-12.51 9.953-14.643 5.483-3.222 12.396-3.606 17.802-0.522 4.922 2.792 8.363 7.5 9.5 12.885 2.055 9.072 0.594 18.506-4.069 28.325-4.128 8.656-9.395 15.226-15.656 19.878-5.484 4.047-12.857 4.649-18.918 1.42" fill="#FF0000" p-id="1954"></path><path d="M173.863 937.756c-4.22 0.022-8.488-0.975-12.295-3.015-4.17-2.258-5.768-7.425-3.51-11.595 2.259-4.17 7.426-5.768 11.596-3.51 3.104 1.7 6.936 1.363 9.8-0.794 5.143-3.756 9.512-9.38 13.034-16.75 3.958-8.099 5.079-15.593 3.507-22.724-0.653-3.032-2.665-5.726-5.428-7.304-2.74-1.481-6.306-1.314-9.266 0.455-1.698 1.042-5.412 5.575-5.971 8.703-0.804 4.632-5.171 7.782-9.803 6.98-4.632-0.804-7.782-5.172-6.98-9.804 1.389-8.488 8.21-17.093 13.935-20.582 8.25-4.943 18.388-5.203 26.437-0.614 6.958 3.933 11.95 10.728 13.668 18.441 2.418 10.94 0.834 22.363-4.751 33.855-4.76 9.844-10.877 17.553-18.278 23.005-4.586 3.514-10.141 5.208-15.695 5.253z" fill="#333333" p-id="1955"></path><path d="M166.939 879.81c-3.708-4.95-12.17-7.89-16.44-8.062-6.256-0.295-12.54 2.611-15.866 7.872-3.035 4.776-3.887 10.45-2.435 15.86 2.444 8.976 8.163 16.62 16.89 23.1 7.709 5.705 15.444 9.033 23.155 10.202 6.742 0.998 13.535-1.932 17.37-7.63" fill="#FF0000" p-id="1956"></path><path d="M174.833 937.514c-1.237 0-2.595-0.074-3.88-0.269-8.998-1.364-18.114-5.274-26.939-11.731C133.76 917.867 127 908.525 124 897.73c-2.106-7.617-0.864-15.863 3.312-22.675 4.977-7.734 14.027-12.36 23.63-11.87 6.161 0.32 17.412 4.11 22.889 11.608 2.81 3.834 1.959 9.096-1.875 11.907s-9.097 1.96-11.908-1.875c-1.696-2.256-7.297-4.467-9.892-4.541-3.444-0.172-6.768 1.378-8.297 3.924-1.797 2.715-2.235 5.916-1.461 9.02 1.984 7.133 6.467 13.126 13.764 18.418 6.57 4.855 13.068 7.77 19.373 8.67 3.54 0.561 7.059-1.038 9.025-3.898 2.622-3.952 7.934-4.967 11.886-2.345 3.951 2.622 4.967 7.934 2.345 11.885-5 7.225-13.298 11.561-21.957 11.555zM924 520.5h-0.4c-11.8-0.2-21.2-9.9-20.9-21.7 0.6-34.3-13.8-70.5-40.6-102.1-7.6-9-6.5-22.4 2.4-30.1 9-7.6 22.4-6.5 30.1 2.4 33.6 39.5 51.6 85.8 50.8 130.5-0.3 11.7-9.8 21-21.4 21z" fill="#333333" p-id="1957"></path><path d="M923.7 559.2m-21.3 0a21.3 21.3 0 1 0 42.6 0 21.3 21.3 0 1 0-42.6 0Z" fill="#333333" p-id="1958"></path><path d="M308.5 825.3c58.8 28 128.1 42.5 201.7 38.7 200-10.5 355.2-152.5 346.5-317.2S679 257 479 267.5 123.8 420 132.4 584.7c3 56.9 25.1 109.1 61.1 152.6" fill="#FF5247" p-id="1959"></path><path d="M486.9 887.2c-66.4 0-130.9-14.2-188.1-41.5-11.3-5.4-16-18.9-10.7-30.1 5.4-11.3 18.9-16 30.1-10.7 57.4 27.4 123.4 40 190.8 36.5 187.2-9.8 333.1-141.5 325.1-293.5S667.3 280.2 480.1 290c-187.2 9.8-333 141.5-325.1 293.5 2.6 50.1 22 98.3 56 139.4 8 9.6 6.6 23.9-3 31.8-9.6 8-23.9 6.6-31.8-3-40.2-48.6-63.1-106-66.3-165.8-2.3-43.9 5.9-87 24.3-128 17.6-39.3 43.9-75.1 78-106.3 69.3-63.5 163.6-101.3 265.6-106.7 102-5.3 199.7 22.5 275.3 78.3 37.2 27.5 67 60.3 88.7 97.6 22.6 38.9 35.3 80.9 37.6 124.8s-5.9 87-24.3 128c-17.6 39.3-43.9 75.1-78 106.3-69.3 63.5-163.6 101.3-265.6 106.7-8.3 0.4-16.4 0.6-24.6 0.6z" fill="#333333" p-id="1960"></path><path d="M228.976667 801.970842a21.3 21.3 0 1 0 30.122224-30.123275 21.3 21.3 0 1 0-30.122224 30.123275Z" fill="#333333" p-id="1961"></path><path d="M473.7 356.8L411 465.7c-5.9 10.2-18.9 13.7-29.1 7.8-7.8-4.5-11.9-13.4-10.3-22.3l16.9-92.9-172.7-8.5c-11.8-0.6-20.8-10.6-20.3-22.4 0.5-9.8 7.6-18 17.2-19.9L386.9 273 352 198.5c-5-10.7-0.4-23.4 10.3-28.4 5.3-2.5 11.5-2.7 17-0.5l163.2 65.3 181.6 22.7c11.7 1.5 20 12.1 18.5 23.8-1.2 9.6-8.7 17.1-18.2 18.5l-80.8 11.3 18.8 95.9c2.3 11.6-5.3 22.8-16.8 25-4.4 0.9-9 0.3-13.1-1.6l-158.8-73.7z" fill="#5DEE57" p-id="1962"></path><path d="M392.4 497.7c-7.2 0-14.5-1.8-21.2-5.7-15.6-9-23.9-26.9-20.7-44.6l12.5-68.9-148.4-7.3c-23.5-1.2-41.7-21.2-40.5-44.7 1-19.6 15.1-35.9 34.3-39.8L356 257.4l-23.3-49.9c-4.8-10.3-5.4-21.9-1.5-32.6s11.7-19.3 22-24.1c10.6-5 23-5.3 33.9-1l160.6 64.3 178.9 22.4c23.3 2.9 40 24.3 37 47.6-2.4 19.1-17.4 34.3-36.4 37l-58.4 8.2 14.5 73.8c2.2 11.2-0.1 22.6-6.5 32-6.4 9.5-16 15.9-27.2 18.1-8.9 1.7-18 0.6-26.2-3.2l-141.1-65.5-53 91.9c-7.7 13.6-22.1 21.3-36.9 21.3z m-21-308.3l46.4 99.2-201 39.9 197 9.7L392.5 455 465 329.3l176.5 82-23.1-118 103.1-14.4-184.3-23-165.8-66.5z" fill="#333333" p-id="1963"></path><path d="M494.7 269.7l8.9-127.7c3-42.6 48.5-82.1 88.1-36.6 26.4 30.4 7.2 100.3-57.4 209.8" fill="#5DEE57" p-id="1964"></path><path d="M534.3 336.6c-3.7 0-7.4-1-10.8-3-10.1-6-13.5-19.1-7.5-29.2 31.2-52.9 51.6-96.4 60.7-129.4 7.3-26.7 7-46.5-1-55.6-9.4-10.8-18.5-14.9-27.1-12-12.1 4-22.5 19.9-23.6 36.1l-9 127.7c-0.8 11.8-11 20.6-22.8 19.8-11.8-0.8-20.6-11-19.8-22.8l8.9-127.7c2.4-33.8 24-64 52.6-73.6 25.4-8.5 52 0.4 72.9 24.5 33.9 39 16.4 113.6-55.2 234.7-3.9 6.8-11 10.5-18.3 10.5z" fill="#333333" p-id="1965"></path><path d="M625.631 656.78m-64 0a64 64 0 1 0 128 0 64 64 0 1 0-128 0Z" fill="#FFD7D1" opacity=".5" p-id="1966"></path><path d="M369.631 656.78m-64 0a64 64 0 1 0 128 0 64 64 0 1 0-128 0Z" fill="#FFD7D1" opacity=".5" p-id="1967"></path><path d="M412.031 591.58m-27.7 0a27.7 27.7 0 1 0 55.4 0 27.7 27.7 0 1 0-55.4 0Z" fill="#333333" p-id="1968"></path><path d="M495.231 680.28c-16 0-31-6.2-42.2-17.5-6.7-6.7-6.7-17.5 0-24.1 6.7-6.7 17.5-6.7 24.1 0 10 10 26.2 10 36.2 0 6.7-6.7 17.5-6.7 24.1 0 6.7 6.7 6.7 17.5 0 24.1-11.2 11.3-26.2 17.5-42.2 17.5z" fill="#333333" p-id="1969"></path><path d="M582.731 591.58m-27.7 0a27.7 27.7 0 1 0 55.4 0 27.7 27.7 0 1 0-55.4 0Z" fill="#333333" p-id="1970"></path><path d="M920.8 817m-21.3 0a21.3 21.3 0 1 0 42.6 0 21.3 21.3 0 1 0-42.6 0Z" fill="#6BD6F8" p-id="1971"></path><path d="M920.8 844.7c-15.3 0-27.7-12.4-27.7-27.7 0-15.3 12.4-27.7 27.7-27.7 15.3 0 27.7 12.4 27.7 27.7 0 15.3-12.4 27.7-27.7 27.7z m0-42.7c-8.2 0-14.9 6.7-14.9 14.9s6.7 14.9 14.9 14.9 14.9-6.7 14.9-14.9S929 802 920.8 802z" fill="#333333" p-id="1972"></path><path d="M853.3 896m-42.7 0a42.7 42.7 0 1 0 85.4 0 42.7 42.7 0 1 0-85.4 0Z" fill="#FF9C00" p-id="1973"></path><path d="M853.3 949.3c-29.4 0-53.3-23.9-53.3-53.3s23.9-53.3 53.3-53.3 53.3 23.9 53.3 53.3-23.9 53.3-53.3 53.3z m0-85.3c-17.6 0-32 14.4-32 32s14.4 32 32 32 32-14.4 32-32-14.3-32-32-32z" fill="#333333" p-id="1974"></path></svg>